<svg width="488" height="249" viewBox="0 0 488 249" fill="none" xmlns="http://www.w3.org/2000/svg">
<path d="M113.334 22.9385C113.159 21.5533 112.804 20.1967 112.28 18.9028C112.213 18.6581 112.096 18.43 111.936 18.233C111.776 18.0361 111.577 17.8746 111.351 17.7589C111.049 17.6804 110.733 17.6769 110.43 17.7486L105.698 18.4725C105.302 18.4906 104.923 18.6379 104.619 18.892C104.003 19.54 104.61 20.5835 104.591 21.4776C104.569 22.4829 103.676 23.299 102.708 23.569C101.719 23.7687 100.699 23.7561 99.7153 23.5319L93.0997 22.5038C95.0481 21.8818 96.7823 20.7245 98.1045 19.164C98.9751 18.1327 99.4383 16.2072 98.18 15.7188C97.8062 15.6162 97.4164 15.5849 97.031 15.6265C94.0337 15.6498 91.675 13.1472 88.869 12.0932C87.0731 11.4622 85.1236 11.4153 83.2994 11.9591C81.4752 12.5029 79.8697 13.6096 78.7124 15.121L82.2366 15.2909C82.5682 15.2726 82.897 15.3603 83.1754 15.5412C83.9477 16.1758 82.9875 17.3947 83.0963 18.3884C83.2377 19.6793 84.9518 19.955 86.2439 20.0855C87.5361 20.2161 89.1753 21.2659 88.5537 22.4062C82.0593 24.6432 75.4505 18.0334 68.63 18.8471C66.9038 19.053 65.2737 19.7311 63.5884 20.1576C53.2929 22.7624 42.6492 15.8123 32.1318 17.2842C29.7937 17.6828 27.4957 18.2889 25.2651 19.0952C23.8337 19.5652 22.3406 20.0732 21.3005 21.1632C20.2605 22.2532 19.8646 24.1173 20.8499 25.2571C18.1342 25.4807 15.4003 25.2209 12.7753 24.4895C13.4851 24.8841 14.0757 25.4625 14.4849 26.164C14.8941 26.8655 15.1069 27.6643 15.101 28.4764C10.8607 29.1679 6.73265 30.4266 2.82792 32.2186C3.55669 33.4305 4.40789 34.5644 5.36816 35.6026L0 39.0513C1.81362 39.5082 2.75131 41.9813 1.69662 43.5258C3.57714 42.6892 4.74259 40.525 6.75349 40.0863C8.0709 39.7988 9.41139 40.3377 10.6612 40.844C11.9109 41.3503 13.2845 41.8412 14.5783 41.4612C15.8721 41.0812 16.8263 39.4037 16.0042 38.3349C21.5341 36.7214 27.2492 35.8285 33.0077 35.6783C33.452 35.6226 33.9025 35.7081 34.2954 35.9227C35.0451 36.4428 34.8478 37.5661 34.8075 38.4776C34.7671 39.389 35.4775 40.5869 36.2921 40.1761C35.3337 41.0072 36.153 42.5717 37.0725 43.4456C37.992 44.3196 39.1002 45.5255 38.5373 46.6623C38.3904 46.959 38.1412 47.1964 37.9998 47.4958C37.5826 48.3795 38.2451 49.4097 39.0265 49.9966C39.808 50.5835 40.7652 50.9936 41.308 51.8063C41.8508 52.6189 41.6043 54.0414 40.6336 54.1549L37.8747 50.6519C36.932 51.6293 36.2858 52.8539 36.0109 54.1837C38.9366 56.5754 39.3767 61.4434 36.9273 64.321C35.6756 65.7915 33.8956 66.685 32.3421 67.832C30.7886 68.979 29.3511 70.6123 29.355 72.5434C29.3617 75.8796 29.0891 78.9791 30.3393 82.0722C32.6446 87.7757 35.3062 93.3285 38.3082 98.698C39.0966 100.108 40.1155 101.653 41.7125 101.896C39.6942 96.9826 37.8772 91.9925 36.2617 86.9261C37.314 86.9302 38.5299 87.0137 39.1467 87.8662C39.6575 88.5721 39.5478 89.5318 39.7065 90.3885C39.9083 91.2186 40.245 92.0099 40.7029 92.731L50.3412 109.9C51.1402 111.323 52.0566 112.851 53.5837 113.427C54.56 113.795 55.6895 113.726 56.5882 114.257C57.2925 114.672 57.7669 115.411 58.485 115.802C60.5153 116.91 63.3387 114.786 65.2362 116.108C65.7787 116.486 66.1238 117.087 66.6237 117.52C68.3761 119.037 71.2508 118.022 73.2738 119.154C74.5776 119.884 75.2533 121.343 75.9487 122.665C77.6906 125.978 80.5092 129.223 84.2423 129.487C85.4149 129.569 86.6127 129.347 87.759 129.608C88.9052 129.869 90.0336 130.869 89.8496 132.03C89.5342 134.021 90.5176 136.2 90.2535 138.198C89.7724 141.838 84.6102 143.437 84.1667 147.081C84.0696 147.879 84.2216 148.703 84.0316 149.484C83.7988 150.441 83.0799 151.22 82.8245 152.172C82.3404 153.975 83.6321 155.769 85.0512 156.982C86.4703 158.195 88.1631 159.241 88.9389 160.939C89.7589 162.734 89.3561 164.827 89.6228 166.782C90.205 171.05 93.8917 174.214 97.6858 176.255C98.8417 176.876 100.083 177.478 100.831 178.556C101.808 179.964 101.71 181.819 102.036 183.501C102.835 187.62 106.302 191.014 106.401 195.208C106.471 198.189 104.814 200.894 103.824 203.707C102.896 206.402 102.56 209.265 102.839 212.102C103.118 214.939 104.006 217.682 105.442 220.144C106.183 221.394 107.068 222.573 107.592 223.929C108.527 226.348 108.224 229.098 109.086 231.544C110.225 234.777 113.356 237.448 113.057 240.864C114.478 243.816 117.617 245.266 120.774 246.145L126.431 247.72C127.514 248.021 128.646 248.325 129.749 248.107C130.852 247.889 131.905 246.973 131.876 245.849C129.102 245.223 126.239 244.558 123.952 242.867C121.665 241.177 120.099 238.166 120.966 235.458C121.369 234.202 122.225 232.752 121.411 231.714C120.945 231.12 120.093 230.965 119.567 230.423C118.748 229.577 119.029 228.157 119.619 227.138C120.208 226.118 121.06 225.207 121.297 224.053C121.417 223.408 121.337 222.742 121.068 222.143C120.798 221.545 120.352 221.043 119.789 220.706C120.838 220.31 121.792 219.697 122.589 218.909C123.326 218.068 123.666 216.772 123.086 215.816C124.807 216.034 126.837 216.141 127.967 214.825C128.868 213.774 128.806 212.203 128.45 210.865C128.094 209.527 127.492 208.227 127.473 206.843C131.441 207.031 135.418 206.896 139.364 206.44C138.793 204.518 137.497 202.894 135.749 201.912C137.536 201.61 139.164 199.47 139.729 197.747C140.294 196.025 140.15 194.149 139.801 192.37C139.666 191.912 139.648 191.428 139.747 190.961C139.948 190.32 140.578 189.928 141.161 189.594L150.033 184.499C150.562 184.233 151.042 183.879 151.451 183.451C152.381 182.36 152.243 180.712 151.767 179.359C151.291 178.007 150.529 176.735 150.346 175.313C149.797 171.06 154.35 168.008 155.886 164.005C156.489 162.434 156.612 160.726 156.729 159.047C156.854 157.244 156.864 155.15 155.479 153.988C154.152 152.874 152.078 153.123 150.69 152.087C149.417 151.137 148.977 149.292 147.587 148.525C146.323 147.828 144.74 148.271 143.335 147.943C140.861 147.366 139.305 144.516 136.779 144.252C135.353 144.103 133.74 144.8 132.572 143.97C131.543 143.238 131.502 141.768 131.306 140.521C130.962 138.582 130.033 136.795 128.643 135.401C127.253 134.006 125.469 133.071 123.532 132.722C122.062 132.486 120.463 132.575 119.212 131.768C117.947 130.95 117.366 129.419 116.372 128.287C114.769 126.462 112.245 125.813 109.881 125.257L100.263 122.996C98.5557 122.595 96.355 122.382 95.4388 123.878C95.1676 124.447 94.9756 125.051 94.8681 125.672C94.5248 126.797 93.8339 127.783 92.8948 128.49C91.9556 129.197 90.8165 129.588 89.6411 129.607C88.8351 128.232 87.5292 127.221 85.9961 126.786C85.0208 126.514 83.9769 126.484 83.0468 126.084C82.5403 125.837 82.0895 125.489 81.7221 125.062C81.3547 124.634 81.0784 124.136 80.9102 123.598C80.7419 123.06 80.6852 122.494 80.7435 121.933C80.8018 121.372 80.9739 120.829 81.2493 120.338C81.8038 119.35 82.0179 118.208 81.8587 117.087C81.6994 115.966 81.1756 114.928 80.3681 114.135C78.7325 112.666 76.3666 112.312 74.1735 112.458C73.5991 111.205 74.5595 109.791 75.5944 108.88C76.6293 107.97 77.8861 107.074 78.1114 105.714C78.466 103.575 75.7361 101.95 73.6635 102.588C71.5908 103.225 70.2679 105.239 69.3934 107.223C68.8917 108.362 68.4651 109.561 67.6737 110.521C66.8822 111.481 65.6077 112.168 64.4022 111.86C62.6955 111.424 62.0364 109.396 61.6587 107.676C61.1519 105.367 60.6422 103.027 60.7483 100.666C60.8545 98.3049 61.6505 95.8807 63.3915 94.2823C66.2285 91.6778 70.5807 91.9331 74.4095 92.3486C73.5049 91.3294 73.7285 89.6117 74.6963 88.6524C75.2073 88.1985 75.8212 87.876 76.4849 87.7129C77.1486 87.5499 77.8421 87.5512 78.5052 87.7167C79.659 87.9569 80.6983 88.5783 81.456 89.4809C82.544 90.8075 82.8534 92.5985 83.6758 94.1043C84.4982 95.61 86.3475 96.8943 87.8611 96.0865C89.1684 95.3887 89.3759 93.5759 89.0505 92.1301C88.7252 90.6844 88.0341 89.2786 88.1519 87.8014C88.3768 84.9827 91.2987 83.2861 93.8771 82.1252C96.4554 80.9644 99.4078 79.4032 99.8163 76.6053C99.8303 76.0574 99.9336 75.5156 100.122 75.0011C100.408 74.5466 100.806 74.1729 101.277 73.9154C108.802 68.9424 116.452 63.9087 125.053 61.1913C125.5 61.0499 125.553 61.2071 126.009 61.0963C126.647 60.7274 126.224 59.707 125.612 59.296C125 58.8849 124.182 58.5697 124.027 57.8491C123.913 57.3193 124.225 56.7992 124.306 56.2634C124.505 54.9469 122.93 53.7313 121.707 54.2576C121.016 53.3427 122.383 52.2795 123.489 51.9752C126.808 51.0617 130.215 50.5051 133.653 50.3149C134.049 50.2518 134.456 50.3209 134.809 50.5116C135.387 50.9115 135.313 51.8288 134.904 52.3996C134.495 52.9704 133.858 53.3288 133.348 53.8118C132.791 54.3545 132.394 55.0398 132.2 55.7929C132.005 56.546 132.022 57.3379 132.247 58.0823C134.041 58.9951 135.992 59.9348 137.98 59.6132C139.967 59.2916 141.731 57.0585 140.797 55.2751C139.927 53.6143 137.314 53.2397 136.865 51.4194C136.339 49.2883 139.355 47.3929 138.676 45.3056C138.378 44.3913 137.467 43.8532 136.768 43.1931C135.942 42.3837 135.38 41.3436 135.156 40.2093C134.933 39.0749 135.057 37.8994 135.513 36.837C134.374 37.0374 133.204 36.9617 132.101 36.6164C130.997 36.271 129.992 35.6661 129.171 34.8523C127.654 33.3213 126.444 30.9061 124.289 30.9746C122.312 31.0375 120.61 33.3438 118.761 32.6402C118.306 32.4671 117.827 32.1147 117.386 32.3212C117.242 32.4149 117.121 32.5403 117.032 32.6878C116.943 32.8352 116.889 33.001 116.874 33.1725C116.404 35.4183 117.212 37.9772 115.988 39.9179C114.656 42.0298 111.575 42.3226 109.96 44.227C109.083 45.2608 108.744 46.6537 107.938 47.7436C107.132 48.8335 105.422 49.5264 104.455 48.5767C104.931 47.5997 105.06 46.4905 104.824 45.4302C104.587 44.37 103.997 43.4214 103.151 42.7396C102.254 42.1539 101.286 41.6832 100.271 41.3386C99.1368 40.8585 98.0579 40.2572 97.0531 39.5451C96.5497 39.2415 96.1407 38.8039 95.8717 38.2811C95.659 37.6266 95.6877 36.9175 95.9525 36.2823C96.4428 34.8766 97.3078 33.6315 98.4541 32.6814C99.6003 31.7314 100.984 31.1124 102.457 30.8915C103.744 30.7163 105.242 30.778 106.094 29.7971C106.545 29.2781 106.782 28.4934 107.436 28.2826C107.855 28.1985 108.289 28.252 108.675 28.4351L113.48 30.1265C114.016 30.3685 114.606 30.4662 115.192 30.4096C115.482 30.3705 115.747 30.2231 115.933 29.9968C116.119 29.7706 116.213 29.4824 116.196 29.1899C116.042 28.3919 114.814 28.009 114.926 27.2041C114.988 26.9433 115.129 26.7075 115.328 26.5281C117.062 24.6823 119.183 23.2427 121.539 22.3125C123.894 21.3823 126.426 20.9844 128.954 21.1473C129.56 22.1434 128.601 23.323 127.803 24.1733C127.005 25.0237 126.363 26.5431 127.329 27.1976C127.724 27.3995 128.164 27.4986 128.608 27.4858C129.791 27.6459 130.941 27.9947 132.014 28.5187C133.674 29.2414 135.303 30.032 136.9 30.8907C136.758 29.8379 136.624 28.7287 137.023 27.7443C137.422 26.7599 138.556 25.9877 139.547 26.3711C140.501 26.7406 140.991 28.0047 142.008 28.1205C143.365 28.275 143.9 26.2706 143.334 25.0282C142.767 23.7858 141.645 22.7455 141.551 21.3831C141.488 20.464 141.838 19.3242 141.104 18.7676C140.842 18.6005 140.546 18.4965 140.237 18.4639L121.906 15.0906C120.818 14.8903 119.245 15.0438 119.197 16.1496C119.17 16.7668 119.721 17.3774 119.477 17.9449C119.216 18.5506 118.36 18.4953 117.736 18.7095C116.769 19.0419 116.283 20.1909 116.376 21.2098C116.546 22.2222 116.938 23.1845 117.524 24.0275C116.332 23.5288 114.526 23.4372 113.334 22.9385Z" fill="#D85A54"/>
<path d="M98.7078 7.37675C97.5519 6.9942 96.3062 6.97639 95.1398 7.32571C93.9734 7.67503 92.9426 8.37459 92.1872 9.32955C91.8854 9.72697 91.6319 10.2748 91.8846 10.7052C92.2468 11.3221 93.1699 11.0784 93.8505 10.8577C94.8508 10.5004 95.9396 10.4744 96.9558 10.7837C97.5948 11.0031 98.1666 11.3908 98.8084 11.602C99.1208 11.7326 99.463 11.7758 99.7981 11.7268C100.133 11.6779 100.449 11.5386 100.711 11.324C101.151 10.8747 101.179 10.1763 101.18 9.54708C101.21 9.33655 101.193 9.12185 101.13 8.91865C101.067 8.71546 100.96 8.52889 100.815 8.37256C100.558 8.22376 100.27 8.13836 99.9733 8.12347C99.3092 8.00055 98.7088 7.64974 98.2756 7.13155" fill="#D85A54"/>
<path d="M105.318 5.53641C105.059 5.52233 104.801 5.57503 104.568 5.68945C104.336 5.80388 104.137 5.97618 103.99 6.18979C103.844 6.4034 103.755 6.65113 103.731 6.90916C103.708 7.16719 103.752 7.42684 103.858 7.66315C104.652 7.87982 105.482 7.93393 106.298 7.82227C106.705 7.75909 107.084 7.57687 107.388 7.29857C107.691 7.02028 107.906 6.65836 108.004 6.25842C107.043 6.43323 106.052 6.24392 105.224 5.72742" fill="#D85A54"/>
<path d="M127.494 2.46401C125.332 2.92373 123.231 3.63727 121.236 4.58978C122.177 4.95127 122.976 5.60532 123.517 6.45552C124.058 7.30573 124.311 8.30713 124.239 9.31213C124.155 9.69796 124.165 10.0985 124.268 10.4797C124.498 11.0369 125.164 11.2459 125.749 11.389C126.801 11.7091 127.899 11.8493 128.998 11.8036C129.548 11.7749 130.081 11.6096 130.551 11.3226C131.02 11.0357 131.411 10.6362 131.687 10.1603C131.846 9.70857 132.033 9.26708 132.247 8.83826C133.65 6.70089 137.819 9.28529 139.326 7.21949C139.857 6.49179 139.808 5.39639 140.5 4.81975C140.858 4.56852 141.273 4.41023 141.707 4.35911C144.737 3.75708 147.798 3.32115 150.876 3.05328C152.334 2.92638 154.235 2.40274 154.247 0.93899C148.754 -0.139783 143.059 0.626404 138.046 3.11843C136.24 4.02297 133.852 5.9257 132.112 4.7265C131.461 4.2775 131.493 3.06845 130.597 2.56355C129.68 2.04736 128.467 2.25731 127.494 2.46401Z" fill="#D85A54"/>
<path d="M145.457 5.82249L148.036 6.31794C147.561 6.29692 147.087 6.37735 146.646 6.55388C146.205 6.73041 145.807 6.99897 145.478 7.34165C145.149 7.68432 144.897 8.09324 144.738 8.5411C144.58 8.98896 144.518 9.46548 144.559 9.93886C146.973 10.7455 149.606 9.96055 152.149 10.0678C154.693 10.175 157.652 11.9919 157.218 14.5003C157.087 15.2588 156.648 16.0168 156.876 16.752C157.036 17.2674 157.49 17.633 157.747 18.1077C158.282 19.0967 157.854 20.3477 157.179 21.2467C156.504 22.1458 155.597 22.8631 155.005 23.8186C153.531 26.195 154.368 29.2671 155.246 31.9219C155.5 32.925 155.969 33.861 156.62 34.6652C157.92 36.048 160.04 36.1682 161.938 36.1959C163.319 36.2161 164.902 36.1478 165.775 35.0775C166.916 33.68 166.118 31.4998 166.869 29.8597C167.551 28.3702 169.289 27.7312 170.863 27.278C173.747 26.4477 176.686 25.7418 179.413 24.4877C182.799 22.9304 185.963 20.5034 189.684 20.303C190.728 20.2467 191.798 20.37 192.804 20.0839C193.81 19.7979 194.765 18.9284 194.689 17.8857C194.624 16.9947 193.87 16.3405 193.281 15.6688C192.692 14.9972 192.229 13.9644 192.771 13.2538L202.525 11.4319C201.833 9.54759 201.295 7.06594 202.884 5.83943C203.457 5.3969 204.224 5.22004 204.712 4.68504C205.544 3.77321 205.126 2.20249 204.166 1.42702C203.205 0.651561 201.907 0.471542 200.677 0.36937C196.4 0.0141673 192.098 0.248878 187.813 0.483771C179.436 0.942934 171.06 1.4021 162.683 1.86126C160.997 1.95369 159.05 1.81248 157.503 2.38778C156.194 2.87484 155.263 3.76887 153.765 4.08298C151.001 4.66286 147.959 4.27047 145.457 5.82249Z" fill="#D85A54"/>
<path d="M191.649 26.2031C191.386 26.1615 191.118 26.2225 190.898 26.3733C190.754 26.5328 190.667 26.737 190.654 26.9521C190.488 27.9013 190.686 28.8783 191.209 29.6876C191.476 30.0846 191.844 30.4029 192.275 30.6097C192.706 30.8164 193.185 30.9039 193.661 30.8632C194.822 30.7151 195.678 29.7246 196.745 29.2413C198.39 28.4971 205.377 27.3368 200.544 24.7259C198.878 23.8261 197.802 24.6204 196.49 25.213C194.996 25.977 193.323 26.3193 191.649 26.2031Z" fill="#D85A54"/>
<path d="M233.979 4.3485C233.414 4.57905 232.942 4.98998 232.636 5.51713C232.495 5.78481 232.462 6.09646 232.544 6.38761C232.627 6.67876 232.818 6.92713 233.078 7.08133C233.289 7.15775 233.512 7.1932 233.736 7.18575L236.031 7.25431C237.006 7.28343 238.223 7.49103 238.485 8.43039C238.68 9.1279 238.245 10.0242 238.77 10.5227C238.995 10.6972 239.266 10.8029 239.55 10.8271C240.306 11.0213 241.096 11.0467 241.862 10.9017C243.532 10.4539 242.655 9.43494 243.18 8.52763C243.985 7.13939 243.846 7.97976 245.263 7.18413C246.31 6.59655 247.663 5.53066 246.789 4.03308C245.27 1.42881 236.221 3.22971 233.979 4.3485Z" fill="#D85A54"/>
<path d="M279.268 3.03955L277.935 3.21735C274.931 3.61829 271.909 4.02292 269.015 4.92518C270.268 5.42044 271.582 5.74292 272.922 5.88374C273.659 5.91989 274.392 6.02401 275.11 6.19479C276.388 6.57529 277.676 7.55784 278.911 7.05452C279.677 6.74244 279.926 5.94525 280.561 5.52275C280.999 5.23102 282.66 4.75883 282.845 4.46437C284.346 2.0839 280.422 2.88557 279.268 3.03955Z" fill="#D85A54"/>
<path d="M285.118 9.09513C283.339 10.0903 281.687 11.2995 280.201 12.6959C279.575 13.2844 278.936 14.0163 278.993 14.8736C279.068 16.0131 280.282 16.674 281.334 17.1192L285.593 18.9225C286.11 18.1943 285.637 17.1889 285.103 16.4732C284.569 15.7576 283.934 14.9295 284.17 14.0683C284.439 13.0855 285.638 12.7505 286.642 12.5812C288.28 12.3054 292.696 12.3275 292.166 9.6889C291.54 6.57984 286.762 8.17649 285.118 9.09513Z" fill="#D85A54"/>
<path d="M284.262 185.039C283.857 186.213 283.818 187.596 284.52 188.62C285.307 189.771 286.882 190.199 288.245 189.908C289.602 189.547 290.811 188.769 291.703 187.684C292.518 186.775 293.189 185.746 293.692 184.634C294.394 182.899 294.889 181.089 295.167 179.239L296.489 172.295C296.785 170.743 296.773 165.986 293.921 167.536C293.142 167.959 291.338 171.303 290.521 172.251C289.049 173.96 288.855 175.618 288.08 177.688C287.11 180.281 285.159 182.442 284.262 185.039Z" fill="#D85A54"/>
<path d="M434.905 220.571C433.971 220.207 433.066 219.776 432.194 219.281C431.321 221.683 430.856 224.214 430.821 226.769L437.207 223.155C438.167 222.612 439.256 221.856 439.236 220.753C439.244 220.617 439.216 220.48 439.154 220.359C439.092 220.237 438.998 220.135 438.883 220.062C438.741 220.005 438.586 219.987 438.435 220.009C437.488 220.088 436.624 220.554 435.731 220.878C434.838 221.202 433.793 221.373 432.974 220.893" fill="#D85A54"/>
<path d="M468.593 222.717C467.892 222.908 467.207 223.154 466.545 223.452C465.079 224.198 464.082 225.614 462.763 226.596C461.501 227.536 459.982 228.052 458.491 228.554C458.052 228.941 458.254 229.722 458.73 230.063C459.242 230.354 459.829 230.486 460.417 230.442C461.966 230.476 463.598 230.491 464.956 229.743C465.72 229.247 466.436 228.679 467.092 228.047C468.679 226.723 470.585 225.849 472.471 225.005C473.158 224.746 473.792 224.366 474.346 223.884C475.531 222.717 475.614 220.915 473.905 220.518C472.524 220.197 469.908 222.292 468.593 222.717Z" fill="#D85A54"/>
<path d="M483.478 212.994C483.555 212.19 483.448 211.38 483.165 210.624C482.883 209.868 482.433 209.185 481.848 208.629C481.83 210.237 481.782 211.949 480.877 213.279C480.233 214.226 479.223 214.866 478.517 215.768C477.811 216.67 477.498 218.1 478.326 218.892C478.855 219.295 479.5 219.517 480.165 219.525C481.813 219.719 483.72 219.828 484.876 218.637C485.507 217.987 485.814 217.025 486.583 216.547C486.87 216.426 487.126 216.243 487.332 216.011C487.65 215.506 487.145 214.84 486.577 214.658C486.009 214.476 485.383 214.562 484.812 214.389C484.24 214.216 483.716 213.574 484.01 213.054" fill="#D85A54"/>
<path d="M457.023 154.05C456.158 154.261 455.263 154.313 454.379 154.206C452.912 153.937 451.77 152.831 450.586 151.924C447.77 149.78 444.347 148.584 440.808 148.508C437.59 148.447 434.341 149.319 431.18 148.711C431.386 149.86 432.369 150.721 433.418 151.233C434.467 151.745 435.624 152.003 436.678 152.505C438.366 153.316 439.705 154.709 440.449 156.428C440.788 157.22 441.002 158.082 441.516 158.774C442.567 160.188 444.559 160.498 446.317 160.383C448.609 160.232 451.003 159.573 453.135 160.427C454.766 161.08 455.934 162.508 457.296 163.618C458.658 164.728 460.576 165.552 462.14 164.751C460.516 164.225 459.102 163.194 458.105 161.807C457.108 160.421 456.58 158.752 456.599 157.045C458.133 157.186 462.551 157.131 462.313 154.525C462.111 152.316 458.34 153.812 457.023 154.05Z" fill="#D85A54"/>
<path d="M436.955 172.023C437.228 170.529 438.717 169.21 438.253 167.764C437.933 166.764 436.773 166.271 435.723 166.246C434.674 166.221 433.642 166.534 432.593 166.563C431.91 166.527 431.225 166.537 430.543 166.593C428.459 166.935 427.175 169.119 425.211 169.896C424.017 170.368 422.676 170.277 421.434 170.604C418.615 171.345 416.832 174.008 414.861 176.156C411.678 179.61 407.53 182.029 402.956 183.099C401.353 183.47 399.63 183.708 398.356 184.749C396.669 186.127 396.254 188.49 395.878 190.636C394.841 196.563 393.257 202.38 391.145 208.014L397.838 208.868C399.11 209.031 400.429 209.19 401.655 208.813C402.546 208.477 403.39 208.027 404.166 207.476C407.147 205.625 410.483 204.421 413.959 203.941C415.712 203.7 417.549 203.656 419.194 204.307C420.839 204.959 422.25 206.436 422.388 208.2C423.099 207.979 423.857 207.955 424.581 208.131C425.305 208.307 425.967 208.676 426.498 209.2C427.546 210.268 428.232 211.638 428.46 213.117C428.636 214.032 428.812 215.129 429.662 215.514C430.355 215.827 431.15 215.489 431.909 215.429C434.482 215.223 436.617 218.223 439.147 217.707C441.859 217.153 442.525 213.09 445.172 212.276C446.692 211.809 448.824 212.377 449.551 210.963C450.193 209.717 448.913 208.279 449.045 206.884C449.207 205.166 451.234 204.437 452.796 203.703C458.183 201.176 460.739 193.927 458.129 188.58C456.582 185.412 453.539 182.918 452.977 179.438C452.545 176.761 453.601 173.638 451.893 171.531C451.025 170.459 449.555 169.867 449.038 168.587C448.713 167.782 448.843 166.869 448.668 166.018C448.493 165.167 447.751 164.277 446.911 164.498C444.473 165.138 443.695 172.671 442.389 174.501C440.405 177.283 436.33 175.45 436.955 172.023Z" fill="#D85A54"/>
<path d="M391.886 156.897C391.053 156.663 390.143 156.433 389.344 156.767C388.546 157.101 388.08 158.273 388.721 158.855C393.734 158.66 398.778 158.466 403.748 159.146C409.475 159.931 415.143 161.874 420.895 161.302C417.609 160.333 414.269 159.558 410.892 158.981L405.261 157.905C403.751 157.589 402.224 157.353 400.689 157.199C397.476 156.934 395.045 157.783 391.886 156.897Z" fill="#D85A54"/>
<path d="M396.904 139.437C396.488 139.402 395.972 139.372 395.757 139.73C395.551 140.072 395.787 140.524 395.676 140.907C395.525 141.431 394.839 141.565 394.299 141.493C393.758 141.422 393.174 141.251 392.695 141.512C392.452 141.678 392.27 141.918 392.175 142.196C392.08 142.475 392.078 142.776 392.169 143.056C392.365 143.611 392.682 144.116 393.096 144.533C393.804 145.426 394.611 146.235 395.501 146.946C397.224 148.218 399.559 148.831 400.644 150.677C400.797 151.035 401.032 151.351 401.331 151.601C401.852 151.931 402.531 151.68 403.092 151.424L405.058 150.525C405.412 150.398 405.728 150.183 405.977 149.9C406.426 149.291 406.15 148.424 405.773 147.768C405.396 147.111 404.914 146.432 404.995 145.679C405.139 144.337 406.865 143.823 407.574 142.675C408.29 141.517 407.824 140.026 407.906 138.667C408.003 137.079 409.001 135.013 407.395 133.826C406.03 132.817 404.726 133.749 403.746 134.863C401.68 137.211 400.702 139.754 396.904 139.437Z" fill="#D85A54"/>
<path d="M408.839 115.703C409.51 116.988 410.909 117.755 411.641 119.007C412.435 120.364 412.344 122.116 413.205 123.431C414.088 124.781 415.865 125.497 416.36 127.031C416.901 128.707 415.674 130.743 416.652 132.207C416.834 132.446 417.065 132.645 417.328 132.791C417.591 132.936 417.882 133.026 418.181 133.053C418.481 133.081 418.783 133.046 419.068 132.951C419.354 132.855 419.616 132.702 419.839 132.5C420.251 132.051 420.472 131.459 420.454 130.849C420.436 130.24 420.181 129.662 419.742 129.238C419.163 128.71 418.332 128.482 417.849 127.866C417.597 127.51 417.429 127.101 417.358 126.671C417.095 125.431 417.137 124.145 417.481 122.924C417.61 122.614 417.643 122.273 417.575 121.944C417.358 121.312 416.501 121.267 415.9 120.973C414.535 120.307 414.568 118.38 414.806 116.879C414.647 117.878 411.089 116.179 410.716 115.613C409.976 114.489 410.379 112.32 410.232 111.078C408.634 111.848 408.018 114.132 408.839 115.703Z" fill="#D85A54"/>
<path d="M372.988 135.478C372.331 134.742 371.342 133.973 370.461 134.417C369.789 134.755 369.605 135.685 369.868 136.389C370.189 137.074 370.683 137.662 371.301 138.097C373.136 139.611 375.112 140.977 376.713 142.736C379.578 145.884 381.096 150.133 384.211 153.033C384.838 153.706 385.667 154.154 386.572 154.311C387.48 154.395 388.5 153.814 388.604 152.909C388.69 152.163 388.17 151.495 387.661 150.942C386.451 149.626 385.126 148.414 383.983 147.038C383.456 146.51 383.124 145.817 383.043 145.075C383.037 144.334 383.713 143.559 384.431 143.742C383.558 143.519 382.91 142.065 381.63 141.792C380.559 141.563 380.3 142.226 379.026 141.68C376.596 140.637 374.69 137.383 372.988 135.478Z" fill="#D85A54"/>
<path d="M430.083 63.8828C429.386 63.6757 428.701 63.4309 428.03 63.1495C426.226 62.6079 423.839 63.9341 424.08 65.8023C424.239 67.0436 425.395 67.8805 426.033 68.9572C426.979 70.554 426.727 72.5792 426.229 74.3674C426.107 74.9211 425.875 75.4446 425.547 75.9067C425.088 76.3947 424.539 76.7895 423.93 77.0697C421.494 78.4359 419.345 80.2613 417.603 82.4449C417.414 82.6466 417.282 82.8953 417.221 83.1652C417.135 83.796 417.769 84.2555 418.127 84.7816C418.924 85.9503 418.348 87.5228 418.427 88.9348C418.415 89.1345 418.454 89.3339 418.54 89.5142C418.627 89.6945 418.758 89.8497 418.922 89.9651C419.402 90.2089 419.97 89.7948 420.23 89.3235C421.094 87.7594 420.443 85.2488 422.063 84.4947C422.369 84.3521 422.741 84.2919 422.945 84.0228C423.269 83.5959 422.956 82.9638 423.121 82.4535C423.367 81.6874 424.415 81.653 425.219 81.687C426.605 81.7449 427.989 81.5605 429.311 81.1422C429.83 81.0189 430.301 80.7462 430.666 80.3578C431.15 79.7536 431.107 78.8945 431.01 78.1264C430.526 74.2968 429.313 70.5953 427.437 67.2217C428.859 67.4034 430.407 67.5608 431.635 66.8194C432.322 66.4042 433.146 65.1627 432.805 64.3177C432.266 62.9814 431.292 64.1062 430.083 63.8828Z" fill="#D85A54"/>
<path d="M247.703 84.9446C247.873 85.8577 248.041 86.8191 247.741 87.6984C247.442 88.5778 246.501 89.3125 245.612 89.043C244.922 88.8339 244.523 88.1403 244.034 87.6115C241.309 84.6705 235.163 86.3732 233.48 82.7348C232.794 81.2499 233.26 79.4709 232.792 77.9033C232.496 76.9974 231.908 76.2152 231.12 75.6797C230.332 75.1442 229.388 74.8857 228.437 74.9448C227.569 75.0701 226.725 75.3221 225.931 75.6929C220.61 77.8238 215.024 79.2209 209.327 79.8458C208.244 79.9118 207.173 80.1066 206.136 80.4263C203.797 81.2744 202.198 83.4433 201.061 85.6564C199.923 87.8696 199.083 90.2656 197.558 92.2319C195.956 94.2983 193.71 95.7454 191.614 97.3106C190.807 97.8308 190.135 98.5351 189.654 99.3657C189.199 100.298 189.225 101.383 189.26 102.419L189.688 115.01C189.743 116.629 189.813 118.307 190.537 119.756C191.443 121.566 193.231 122.751 194.471 124.349C195.737 125.992 196.396 128.022 196.337 130.095C196.311 130.929 196.228 131.915 196.877 132.438C197.272 132.694 197.734 132.827 198.205 132.82L215.236 134.214C218.232 134.459 221.552 134.862 223.508 137.145C224.431 138.222 225.173 139.771 226.587 139.887C227.193 139.936 227.783 139.687 228.39 139.639C229.92 139.518 231.265 140.68 232.113 141.959C233.398 143.909 233.98 146.238 233.766 148.563C233.627 150.023 233.175 151.441 233.077 152.904C232.706 158.471 237.425 163.307 237.516 168.885C237.57 172.166 236.012 175.231 234.494 178.14C236.945 181.853 234.938 186.797 235.914 191.137C236.839 195.255 240.273 198.479 241.128 202.612C241.52 204.504 241.543 206.832 243.211 207.807C243.943 208.164 244.755 208.326 245.568 208.279C250.472 208.337 255.32 207.233 259.716 205.058C261.779 204.034 263.917 202.506 264.277 200.231C264.568 198.396 263.638 196.344 264.584 194.747C265.7 192.863 268.559 193.013 270.2 191.565C272.864 189.216 270.787 184.736 271.866 181.352C272.836 178.311 276.175 176.696 277.83 173.966C278.482 172.792 278.949 171.525 279.216 170.21C279.975 167.065 280.447 163.859 280.626 160.629C280.671 158.667 280.815 156.708 281.06 154.761C282.844 143.674 293.805 136.25 297.363 125.6C297.703 124.583 297.863 123.228 296.958 122.652C296.421 122.396 295.813 122.333 295.235 122.472L287.384 123.462C286.409 123.585 285.375 123.7 284.479 123.295C283.584 122.889 282.942 121.757 283.417 120.896C284.75 118.481 282.008 115.429 280.789 112.953C277.507 106.288 273.599 99.9503 269.117 94.025C268.831 93.7202 268.651 93.3301 268.606 92.914L270.834 92.9882C270.082 90.2892 268.841 87.3357 266.218 86.3485C264.741 85.7921 263.105 85.9845 261.528 86.0706C257.013 86.3173 252.172 85.6356 247.703 84.9446Z" fill="#D85A54"/>
<path d="M261.532 24.1236C262.714 25.3784 264.038 26.7087 265.747 26.9274C268.767 27.3138 270.938 24.1912 272.32 21.479C272.372 22.1704 272.69 22.8146 273.209 23.2746C273.728 23.7346 274.406 23.974 275.098 23.9419C275.844 23.8165 276.555 23.5384 277.188 23.125C283.171 19.8555 289.872 18.1232 296.69 18.0837C296.624 17.5672 296.752 17.0448 297.049 16.6173C297.346 16.1897 297.791 15.8873 298.298 15.7684C299.684 15.4936 300.933 16.692 301.601 17.9369C302.27 19.1819 302.687 20.6248 303.749 21.5567C304.812 22.4885 306.869 22.4479 307.288 21.0985C307.691 19.803 306.341 18.6983 305.22 17.9345C304.099 17.1707 302.917 15.7571 303.672 14.6299C309.401 13.3619 315.164 12.0891 321.026 11.8371C322.024 11.8718 323.018 11.7005 323.947 11.3338C324.841 10.8952 325.552 9.89942 325.311 8.93313C324.032 9.23382 322.692 9.14675 321.463 8.68301C320.233 8.21927 319.17 7.39987 318.408 6.32931C326.541 5.65813 335.192 5.08605 342.4 8.91314C343.265 10.77 338.857 12.3149 340.036 13.9897C340.412 14.5239 341.166 14.5865 341.819 14.5986C346.828 14.6916 351.866 14.7828 356.819 14.0266C358.628 13.7502 360.456 13.3601 362.273 13.5842C365.3 13.9575 367.889 15.9768 370.866 16.6352C372.078 16.9032 373.437 16.9123 374.458 16.2074C375.48 15.5026 375.919 13.8976 375.082 12.9813C377.885 10.2336 382.538 10.9146 386.236 12.23C389.935 13.5455 393.439 15.6668 397.353 15.96C400.16 16.1703 403.006 15.4152 405.78 15.8951C407.523 16.1967 409.145 16.9721 410.848 17.4485C414.07 18.3495 417.478 18.1593 420.824 18.2027C429.359 18.3177 437.801 19.9952 445.732 23.1521C446.763 23.488 447.709 24.0465 448.501 24.788C449.239 25.5783 449.615 26.8063 449.119 27.767L440.924 26.5696C441.696 28.0896 443.693 28.3487 445.316 28.873C446.938 29.3974 448.62 31.1889 447.645 32.5875C445.887 32.0279 444.295 33.7852 443.407 35.4021C442.519 37.019 441.437 38.9555 439.595 39.054C437.945 39.1422 435.95 37.7376 434.875 38.9917C436.361 40.8655 437.633 42.899 438.667 45.0546C439.73 47.2675 440.486 50.0559 439.051 52.0469C438.825 52.4023 438.482 52.668 438.082 52.7982C436.909 53.0951 436.147 51.6607 435.306 50.7913C434.247 49.6957 432.644 49.3854 431.21 48.8716C429.775 48.3578 428.263 47.3471 428.151 45.8271C428.081 44.8814 428.58 44.0023 428.948 43.1282C429.566 41.655 429.836 40.0591 429.738 38.4644C429.658 37.1815 429.298 35.847 428.376 34.9507C427.455 34.0543 425.864 33.7699 424.875 34.5909C424.414 34.974 424.044 35.5867 423.445 35.6096C422.386 35.6501 421.573 33.8039 420.721 34.4341C420.82 35.1056 420.681 35.7909 420.327 36.3702C417.785 38.5814 413.879 37.6459 410.601 38.427C409.043 38.8731 407.551 39.5247 406.164 40.3648C405.645 40.5866 405.204 40.9571 404.896 41.4295C404.487 42.2245 404.938 43.2428 405.659 43.7714C406.424 44.2405 407.283 44.5338 408.175 44.6303C412.171 45.3871 416.225 46.5586 419.38 49.1251C422.534 51.6917 424.603 55.9344 423.605 59.8769L415.725 52.3473C416.024 55.5088 416.194 58.679 416.234 61.8579C416.285 62.4786 416.2 63.103 415.985 63.6873C415.423 64.9281 413.9 65.3456 412.566 65.6195C412.195 65.69 411.843 65.8382 411.533 66.0544C411.224 66.2706 410.963 66.5499 410.769 66.8739C410.575 67.1979 410.451 67.5594 410.407 67.9345C410.362 68.3096 410.398 68.6898 410.511 69.0503C410.985 70.5954 412.167 71.8001 413.249 73.0004C414.331 74.2008 415.396 75.565 415.538 77.175C415.679 78.785 414.465 80.5996 412.852 80.4877C411.63 80.4028 410.723 79.3087 410.202 78.1999C409.681 77.0912 409.371 75.8561 408.587 74.914C406.216 72.0625 400.891 73.2842 398.767 70.2443C398.226 70.8584 397.85 71.6008 397.676 72.4008C397.502 73.2008 397.536 74.032 397.774 74.8154C398.762 74.1969 400.115 74.7716 400.857 75.6704C401.599 76.5692 401.949 77.7215 402.533 78.731C403.319 80.0932 404.571 81.3008 404.681 82.87C404.652 83.4634 404.662 84.058 404.711 84.6501C404.906 85.6009 405.71 86.2836 406.267 87.0784C407.563 88.9276 407.499 91.468 406.664 93.5662C405.828 95.6644 404.327 97.4176 402.84 99.1174C400.242 102.086 397.592 105.038 394.513 107.503C393.634 108.207 392.696 108.899 392.149 109.882C391.602 110.866 391.574 112.246 392.415 112.995C391.813 113.025 390.734 113.321 390.132 113.351C389.921 110.937 389.875 108.512 389.995 106.092C387.62 104.952 385.064 108.005 385.37 110.621C385.676 113.237 387.569 115.337 388.916 117.6C389.901 119.255 390.633 121.185 390.304 123.083C389.975 124.981 388.281 126.732 386.362 126.565C383.31 126.298 382.033 121.917 379.011 121.415C378.744 121.352 378.464 121.38 378.215 121.494C377.767 121.74 377.689 122.341 377.663 122.852C377.54 125.361 377.433 127.969 378.412 130.282C379.845 133.666 383.546 136.509 382.77 140.1C378.587 138.156 376.412 133.466 375.425 128.96C374.438 124.454 374.273 119.724 372.503 115.465C371.159 117.188 368.334 115.764 367.106 113.956C365.942 112.243 365.225 110.261 364.096 108.525C362.966 106.788 361.236 105.234 359.167 105.138C356.997 105.038 355.116 106.527 353.461 107.934C352.1 109.09 350.704 110.292 349.908 111.891C348.751 114.218 349.054 116.961 348.998 119.559C348.938 122.368 348.342 125.332 346.428 127.388C344.514 129.444 340.98 130.16 338.868 128.307C337.766 127.34 337.232 125.894 336.757 124.507C334.465 117.818 332.557 111.005 331.04 104.099C330.686 105.675 329.302 107.707 327.979 106.778C327.683 106.529 327.442 106.219 327.274 105.87C324.808 101.689 320.241 99.1822 315.626 97.6789C311.011 96.1756 306.156 95.4743 301.593 93.8222C299.035 92.8959 296.593 91.6792 294.313 90.1959C293.732 91.0498 293.392 92.045 293.331 93.076C293.269 94.1071 293.487 95.1356 293.963 96.0525C294.975 97.845 297.266 98.882 299.227 98.2555C300.24 97.9317 301.096 97.2283 302.101 96.8809C303.107 96.5334 304.456 96.704 304.896 97.6727C305.317 98.5999 304.681 99.7216 304.996 100.69C305.477 102.164 307.7 102.278 308.478 103.62C309.057 104.618 308.581 105.943 307.755 106.749C306.928 107.555 305.826 107.996 304.818 108.557C301.546 110.377 299.219 113.483 296.359 115.899C293.5 118.316 289.465 120.08 286.057 118.53C286.87 114.417 281.97 111.397 281.068 107.302C280.772 105.954 280.926 104.522 280.502 103.209C279.889 101.307 278.202 99.9997 276.818 98.5586C275.139 96.7917 273.831 94.7065 272.971 92.4259C272.111 90.1454 271.717 87.7158 271.812 85.2804C271.886 83.5881 272.197 81.8682 271.812 80.2186C271.426 78.5691 270.061 76.9725 268.368 77.0473C264.503 77.218 259.634 77.5055 257.606 74.2105C256.882 73.0346 256.567 71.3122 257.613 70.4112C258.352 69.7756 259.441 69.8355 260.411 69.9309L269.12 70.7876C271.157 70.988 273.358 71.1533 275.106 70.0884C276.854 69.0236 277.612 66.1969 275.993 64.9441C274.811 64.0287 272.692 64.0784 272.348 62.6229C272.062 61.4108 273.403 60.0354 272.679 59.0224C272.159 58.2961 270.991 58.4976 270.283 59.0421C269.575 59.5866 269.062 60.3829 268.27 60.7952C266.88 61.5184 265.219 60.8301 263.724 60.3623C262.229 59.8945 260.225 59.8548 259.5 61.2434C258.689 62.7965 260.219 64.8315 259.414 66.3877C258.35 68.4452 254.746 67.2739 253.252 69.0437C251.537 71.0745 254.419 74.1027 253.84 76.6971C253.102 77.0628 252.281 77.2307 251.458 77.1845C250.636 77.1382 249.839 76.8794 249.146 76.4333C248.465 75.9699 247.922 75.3304 247.575 74.583C247.228 73.8355 247.09 73.008 247.176 72.1884C247.319 71.0213 247.928 69.83 247.52 68.7271C247.191 67.8354 246.295 67.3046 245.463 66.8447L237 62.168C236.214 63.6257 237.208 65.4327 238.45 66.5275C239.692 67.6223 241.248 68.4469 242.064 69.8877C242.581 70.886 242.696 72.0436 242.388 73.1243C242.08 74.205 241.37 75.1272 240.405 75.7026C240.284 75.7861 240.146 75.8424 240.001 75.8677C239.857 75.8929 239.708 75.8865 239.566 75.8489C239.431 75.7696 239.313 75.6639 239.22 75.5383C239.126 75.4126 239.059 75.2694 239.022 75.1173C237.529 71.296 235.287 67.5283 231.702 65.5321C228.118 63.5359 222.968 63.9463 220.617 67.309C220.059 68.1077 219.684 69.0181 219.198 69.8626C216.614 74.349 211.075 76.4734 205.899 76.3347C205.393 76.3627 204.889 76.2443 204.448 75.9938C203.612 75.4161 203.65 74.1903 203.778 73.1818L204.321 68.9023C204.43 68.043 204.588 67.0931 205.268 66.5566C206.227 65.8005 207.61 66.2777 208.831 66.2601C209.756 66.2168 210.646 65.8901 211.379 65.3243C212.112 64.7585 212.653 63.981 212.929 63.0972C213.176 62.2046 213.175 61.2616 212.925 60.3699C212.675 59.4782 212.187 58.6715 211.513 58.0367C210.953 57.5111 210.202 56.8508 210.498 56.1423C210.616 55.9463 210.775 55.7785 210.965 55.6507C211.155 55.5229 211.37 55.4383 211.596 55.4027C213.789 54.7658 216.107 54.5989 218.263 53.8474C220.42 53.0959 222.511 51.5584 223.022 49.3324C223.179 48.6503 223.25 47.8239 223.863 47.4857C224.17 47.3559 224.5 47.2884 224.834 47.2872C226.003 47.1209 227.068 46.5229 227.818 45.6109C228.568 44.699 228.95 43.5391 228.888 42.3598C229.922 41.6376 231.37 42.1688 232.37 42.937C233.37 43.7051 234.252 44.72 235.469 45.0511C237.736 45.6682 239.928 43.6607 242.277 43.6514C243.265 43.6475 244.288 43.9968 245.218 43.6618C246.16 43.3222 246.723 42.3841 247.447 41.691C248.17 40.9979 249.439 40.5752 250.107 41.3218L249.538 37.109C250.684 37.3984 251.878 37.4393 253.04 37.2291C254.203 37.019 255.307 36.5625 256.278 35.8904L248.928 33.4068C248.672 33.3429 248.436 33.2166 248.24 33.0393C247.706 32.4638 248.237 31.5671 248.671 30.913C249.711 29.3481 249.885 26.7704 248.176 25.9913C247.009 25.4595 245.67 26.0979 244.55 26.7223L239.185 29.7138C239.014 30.7336 240.261 31.3115 241.034 31.9984C241.502 32.414 241.832 32.9613 241.983 33.5684C242.134 34.1755 242.098 34.8141 241.879 35.4002C241.66 35.9862 241.269 36.4924 240.758 36.8523C240.246 37.2121 239.637 37.4088 239.012 37.4165C239.365 37.8758 239.611 38.4087 239.73 38.9757C239.85 39.5427 239.84 40.1294 239.702 40.6922L236.092 40.9518C235.687 41.0333 235.266 40.9511 234.921 40.7233C234.535 40.3804 234.588 39.7795 234.498 39.271C234.282 38.0436 233.08 37.1833 231.854 36.9628C230.627 36.7422 229.372 37.0249 228.158 37.3041C227.642 37.4897 227.076 37.4766 226.569 37.2674C226.279 37.0787 226.058 36.8001 225.941 36.4741C225.408 35.183 225.906 33.6654 226.761 32.5613C227.616 31.4571 228.787 30.65 229.839 29.7308C232.353 27.5246 234.2 24.6592 235.172 21.4583C237.159 20.6257 239.216 19.4945 241.204 18.6619C244.267 17.1108 247.703 16.4451 251.124 16.7398L257.854 16.8683C259.846 16.9064 261.892 16.9552 263.735 17.7147C265.577 18.4743 267.196 20.1172 267.323 22.1059C267.361 22.3311 267.342 22.5623 267.267 22.7778C267.191 22.9934 267.062 23.1862 266.892 23.3383C266.631 23.4802 266.337 23.5467 266.041 23.53C264.183 23.5953 263.39 24.0583 261.532 24.1236Z" fill="#D85A54"/>
<path d="M207.892 45.2148C208.155 44.966 208.345 44.6494 208.439 44.3C208.534 43.9506 208.531 43.5819 208.429 43.2343C207.79 42.9874 207.094 42.924 206.42 43.0513C205.746 43.1785 205.121 43.4913 204.615 43.9545C204.217 44.3578 203.873 44.812 203.594 45.3054C202.709 46.7481 201.927 48.4714 202.44 50.0841C202.481 50.26 202.558 50.4257 202.665 50.5716C202.771 50.7175 202.906 50.8407 203.061 50.9338C203.291 51.026 203.538 51.0648 203.785 51.0473C204.759 51.046 205.732 50.9861 206.699 50.8679C207.293 50.7953 207.983 50.6276 208.212 50.0751C208.514 49.3489 207.784 48.527 207.997 47.7699C208.137 47.4314 208.349 47.1275 208.619 46.8794C208.752 46.7545 208.855 46.6001 208.919 46.4286C208.982 46.257 209.005 46.0729 208.985 45.891C208.899 45.5358 208.356 45.3343 208.16 45.6429" fill="#D85A54"/>
<path d="M212.945 38.6648C212.079 38.4661 211.187 38.4101 210.304 38.499C210.108 38.4931 209.915 38.5371 209.741 38.6268C209.573 38.7509 209.451 38.9277 209.394 39.129C209.208 39.7279 209.253 40.3751 209.523 40.9417C209.792 41.5083 210.265 41.9527 210.847 42.1864C211.164 42.2594 211.468 42.3815 211.747 42.5484C212.494 43.1279 212.018 44.3125 212.16 45.2472C212.318 46.2969 213.334 47.1779 213.148 48.223C213.001 49.0464 212.122 49.6984 212.264 50.5227C212.412 51.386 213.507 51.6454 214.381 51.7145C214.887 51.8031 215.408 51.7435 215.88 51.5426C216.354 51.2185 216.692 50.7303 216.827 50.1722C217.184 49.1081 217.334 47.9853 217.269 46.8646C217.265 46.3549 217.137 45.8538 216.896 45.4047C216.633 45.049 216.342 44.7152 216.025 44.4067C214.352 42.4606 216.113 39.5578 212.945 38.6648Z" fill="#D85A54"/>
<path opacity="0.8" d="M432.946 191.115C432.946 191.115 304.808 117.561 249.642 131.498C249.642 131.498 132.731 144.079 119.181 171.759C119.181 171.759 82.0171 55.6213 68.4678 51.75" stroke="#5A87F1" stroke-width="2" stroke-miterlimit="10"/>
<path opacity="0.8" d="M119.181 171.759C140.667 114.464 334.229 50.9756 334.229 50.9756C306.743 57.9438 249.642 131.498 249.642 131.498C249.642 131.498 128.859 43.6202 68.4678 51.7498C68.4678 51.7498 334.423 60.4601 432.946 191.115" stroke="#5A87F1" stroke-width="2" stroke-miterlimit="10"/>
<path d="M68.4678 57.3634C71.568 57.3634 74.0811 54.8502 74.0811 51.75C74.0811 48.6499 71.568 46.1367 68.4678 46.1367C65.3677 46.1367 62.8545 48.6499 62.8545 51.75C62.8545 54.8502 65.3677 57.3634 68.4678 57.3634Z" fill="white"/>
<path d="M119.181 177.372C122.281 177.372 124.794 174.859 124.794 171.759C124.794 168.659 122.281 166.146 119.181 166.146C116.081 166.146 113.567 168.659 113.567 171.759C113.567 174.859 116.081 177.372 119.181 177.372Z" fill="white"/>
<path d="M334.23 56.5889C337.33 56.5889 339.843 54.0758 339.843 50.9756C339.843 47.8755 337.33 45.3623 334.23 45.3623C331.129 45.3623 328.616 47.8755 328.616 50.9756C328.616 54.0758 331.129 56.5889 334.23 56.5889Z" fill="white"/>
<path d="M432.946 196.729C436.046 196.729 438.56 194.215 438.56 191.115C438.56 188.015 436.046 185.502 432.946 185.502C429.846 185.502 427.333 188.015 427.333 191.115C427.333 194.215 429.846 196.729 432.946 196.729Z" fill="white"/>
<path d="M249.643 137.111C252.743 137.111 255.256 134.598 255.256 131.498C255.256 128.398 252.743 125.885 249.643 125.885C246.542 125.885 244.029 128.398 244.029 131.498C244.029 134.598 246.542 137.111 249.643 137.111Z" fill="white"/>
</svg>
