<svg width="61" height="62" viewBox="0 0 61 62" fill="none" xmlns="http://www.w3.org/2000/svg">
<path d="M35.3291 36.1416L16.0997 45.0872L25.0452 25.8577L44.2747 16.9122M30.1872 7.52051C27.1038 7.52051 24.0507 8.12781 21.2021 9.30775C18.3535 10.4877 15.7651 12.2172 13.5849 14.3974C9.1817 18.8006 6.70801 24.7726 6.70801 30.9997C6.70801 37.2267 9.1817 43.1988 13.5849 47.602C15.7651 49.7822 18.3535 51.5117 21.2021 52.6916C24.0507 53.8715 27.1038 54.4788 30.1872 54.4788C36.4142 54.4788 42.3863 52.0052 46.7895 47.602C51.1927 43.1988 53.6663 37.2267 53.6663 30.9997C53.6663 27.9163 53.059 24.8632 51.8791 22.0146C50.6992 19.166 48.9697 16.5776 46.7895 14.3974C44.6092 12.2172 42.0209 10.4877 39.1723 9.30775C36.3236 8.12781 33.2705 7.52051 30.1872 7.52051ZM30.1872 28.417C29.5022 28.417 28.8453 28.6891 28.3609 29.1734C27.8766 29.6578 27.6045 30.3147 27.6045 30.9997C27.6045 31.6847 27.8766 32.3416 28.3609 32.8259C28.8453 33.3103 29.5022 33.5824 30.1872 33.5824C30.8722 33.5824 31.5291 33.3103 32.0134 32.8259C32.4978 32.3416 32.7699 31.6847 32.7699 30.9997C32.7699 30.3147 32.4978 29.6578 32.0134 29.1734C31.5291 28.6891 30.8722 28.417 30.1872 28.417Z" fill="#D85A54"/>
</svg>
