<svg width="20" height="20" viewBox="0 0 20 20" fill="none" xmlns="http://www.w3.org/2000/svg">
<path d="M7.62109 0.0320778C7.4414 0.102446 7.29297 0.239273 7.22266 0.395645C7.15234 0.552019 7.14844 0.872585 7.14844 9.99699C7.14844 19.1878 7.15234 19.442 7.22266 19.6022C7.26953 19.7039 7.35937 19.8055 7.46484 19.8759L7.63281 19.9854H9.99998H12.3672L12.5273 19.8798C12.6211 19.8172 12.7187 19.7078 12.7695 19.6061L12.8515 19.4341V9.99308C12.8515 0.806128 12.8476 0.552019 12.7773 0.391737C12.7304 0.290094 12.6406 0.18845 12.5351 0.118082L12.3672 0.00862122L10.043 0.000802994C8.6328 -0.00310707 7.67968 0.00862122 7.62109 0.0320778Z" fill="black"/>
<path d="M14.8203 5.73585C14.6367 5.77885 14.4609 5.91959 14.375 6.08769C14.2969 6.24016 14.2969 6.3418 14.2969 12.8509C14.2969 19.3521 14.2969 19.4615 14.375 19.6101C14.4648 19.7938 14.6094 19.9111 14.8008 19.9698C14.8945 19.9971 15.7109 20.0049 17.2305 19.9971L19.5156 19.9854L19.6758 19.8798C19.7695 19.8173 19.8672 19.7078 19.9179 19.6062L20 19.4342V12.8587C20 7.42078 19.9922 6.2597 19.9453 6.15415C19.8789 5.98605 19.6484 5.79058 19.4648 5.73976C19.2929 5.68894 15.0156 5.68503 14.8203 5.73585Z" fill="black"/>
<path d="M0.488279 7.8899C0.339842 7.9329 0.121093 8.1401 0.0546872 8.30429C0.00781246 8.40984 0 9.3989 0 13.9337V19.4342L0.0820308 19.6062C0.132812 19.7078 0.230467 19.8173 0.324217 19.8798L0.484372 19.9854L2.76952 19.9971C4.28904 20.0049 5.10544 19.9971 5.19919 19.9698C5.39059 19.9111 5.53513 19.7938 5.62497 19.6101C5.70309 19.4655 5.70309 19.356 5.70309 13.9259C5.70309 8.57012 5.69919 8.38638 5.62888 8.24565C5.53903 8.06582 5.44919 7.98372 5.26169 7.90554C5.1406 7.85471 4.81247 7.8469 2.86327 7.85081C1.62108 7.85081 0.550778 7.87035 0.488279 7.8899Z" fill="black"/>
</svg>
