<svg width="20" height="20" viewBox="0 0 20 20" fill="none" xmlns="http://www.w3.org/2000/svg">
<path d="M8.33333 14.1969H6.1075C5.77893 14.1979 5.45343 14.1336 5.14987 14.0076C4.84632 13.8816 4.57075 13.6964 4.33917 13.4629L0.0433333 9.15796C0.0191667 9.44356 0 9.73 0 10.0214C0.00365984 12.5328 0.94745 14.9514 2.64478 16.799C4.34212 18.6467 6.66945 19.7889 9.16667 19.9999V15.032C9.16667 14.8105 9.07887 14.5981 8.92259 14.4415C8.76631 14.2849 8.55435 14.1969 8.33333 14.1969Z" fill="black"/>
<path d="M17.03 2.90491L15.5383 4.39972C15.1469 4.78978 14.6178 5.00943 14.0658 5.011H12.9167C12.8062 5.011 12.7002 5.055 12.622 5.1333C12.5439 5.21161 12.5 5.31781 12.5 5.42855V6.26364C12.5 6.81734 12.2805 7.34836 11.8898 7.73989C11.4991 8.13141 10.9692 8.35137 10.4167 8.35137C10.3062 8.35137 10.2002 8.39536 10.122 8.47366C10.0439 8.55197 10 8.65817 10 8.76891V9.18646C10 9.40794 10.0878 9.62034 10.2441 9.77695C10.4004 9.93356 10.6123 10.0215 10.8333 10.0215H13.3333C13.9964 10.0215 14.6323 10.2855 15.1011 10.7553C15.5699 11.2252 15.8333 11.8624 15.8333 12.5268V13.3302C15.8334 13.4407 15.8771 13.5467 15.955 13.625L18.1425 15.8179C19.5215 13.8852 20.1671 11.5229 19.9632 9.15576C19.7592 6.78866 18.7192 4.57214 17.03 2.90491Z" fill="black"/>
<path d="M14.167 13.3301V12.5268C14.167 12.3053 14.0792 12.0929 13.9229 11.9363C13.7666 11.7797 13.5547 11.6917 13.3337 11.6917H10.8337C10.1706 11.6917 9.53473 11.4277 9.06589 10.9579C8.59705 10.4881 8.33366 9.85086 8.33366 9.18642V8.76887C8.33366 8.21517 8.55315 7.68415 8.94385 7.29263C9.33455 6.9011 9.86446 6.68115 10.417 6.68115C10.5275 6.68115 10.6335 6.63715 10.7116 6.55885C10.7898 6.48054 10.8337 6.37434 10.8337 6.2636V5.42851C10.8337 4.87481 11.0532 4.34379 11.4439 3.95227C11.8346 3.56074 12.3645 3.34078 12.917 3.34078H14.0662C14.1763 3.34013 14.2819 3.29638 14.3603 3.21886L15.7445 1.83178C14.4486 0.914572 12.9531 0.320242 11.3822 0.0980945C9.81122 -0.124053 8.21004 0.0323851 6.71148 0.554431C5.21292 1.07648 3.86018 1.94908 2.76549 3.09985C1.67079 4.25062 0.865695 5.64638 0.416992 7.17134L5.51699 12.2821C5.59455 12.3598 5.68667 12.4215 5.78806 12.4635C5.88945 12.5055 5.99812 12.527 6.10783 12.5268H8.33366C8.9967 12.5268 9.63259 12.7907 10.1014 13.2606C10.5703 13.7304 10.8337 14.3676 10.8337 15.032V20C13.1893 19.8057 15.3993 18.779 17.0695 17.1031L14.777 14.8057C14.3878 14.4135 14.1686 13.8833 14.167 13.3301Z" fill="black"/>
</svg>
