<svg width="20" height="20" viewBox="0 0 20 20" fill="none" xmlns="http://www.w3.org/2000/svg">
<path d="M15.8333 3.33333H12.5V2.5C12.5 1.83696 12.2366 1.20107 11.7678 0.732233C11.2989 0.263392 10.663 0 10 0C9.33696 0 8.70107 0.263392 8.23223 0.732233C7.76339 1.20107 7.5 1.83696 7.5 2.5V3.33333H4.16667C3.062 3.33466 2.00296 3.77407 1.22185 4.55518C0.440735 5.3363 0.00132321 6.39534 0 7.5L0 15.8333C0.00132321 16.938 0.440735 17.997 1.22185 18.7782C2.00296 19.5593 3.062 19.9987 4.16667 20H15.8333C16.938 19.9987 17.997 19.5593 18.7782 18.7782C19.5593 17.997 19.9987 16.938 20 15.8333V7.5C19.9987 6.39534 19.5593 5.3363 18.7782 4.55518C17.997 3.77407 16.938 3.33466 15.8333 3.33333ZM8.33333 15C8.33333 15.221 8.24554 15.433 8.08926 15.5893C7.93297 15.7455 7.72101 15.8333 7.5 15.8333H3.33333C3.11232 15.8333 2.90036 15.7455 2.74408 15.5893C2.5878 15.433 2.5 15.221 2.5 15V8.33333C2.5 8.11232 2.5878 7.90036 2.74408 7.74408C2.90036 7.5878 3.11232 7.5 3.33333 7.5H7.5C7.72101 7.5 7.93297 7.5878 8.08926 7.74408C8.24554 7.90036 8.33333 8.11232 8.33333 8.33333V15ZM10 5C9.77899 5 9.56702 4.9122 9.41074 4.75592C9.25446 4.59964 9.16667 4.38768 9.16667 4.16667V2.5C9.16667 2.27899 9.25446 2.06702 9.41074 1.91074C9.56702 1.75446 9.77899 1.66667 10 1.66667C10.221 1.66667 10.433 1.75446 10.5893 1.91074C10.7455 2.06702 10.8333 2.27899 10.8333 2.5V4.16667C10.8333 4.38768 10.7455 4.59964 10.5893 4.75592C10.433 4.9122 10.221 5 10 5ZM15 15.8333H11.6667C11.4457 15.8333 11.2337 15.7455 11.0774 15.5893C10.9211 15.433 10.8333 15.221 10.8333 15C10.8333 14.779 10.9211 14.567 11.0774 14.4107C11.2337 14.2545 11.4457 14.1667 11.6667 14.1667H15C15.221 14.1667 15.433 14.2545 15.5893 14.4107C15.7455 14.567 15.8333 14.779 15.8333 15C15.8333 15.221 15.7455 15.433 15.5893 15.5893C15.433 15.7455 15.221 15.8333 15 15.8333ZM16.6667 12.5H11.6667C11.4457 12.5 11.2337 12.4122 11.0774 12.2559C10.9211 12.0996 10.8333 11.8877 10.8333 11.6667C10.8333 11.4457 10.9211 11.2337 11.0774 11.0774C11.2337 10.9211 11.4457 10.8333 11.6667 10.8333H16.6667C16.8877 10.8333 17.0996 10.9211 17.2559 11.0774C17.4122 11.2337 17.5 11.4457 17.5 11.6667C17.5 11.8877 17.4122 12.0996 17.2559 12.2559C17.0996 12.4122 16.8877 12.5 16.6667 12.5ZM16.6667 9.16667H11.6667C11.4457 9.16667 11.2337 9.07887 11.0774 8.92259C10.9211 8.76631 10.8333 8.55435 10.8333 8.33333C10.8333 8.11232 10.9211 7.90036 11.0774 7.74408C11.2337 7.5878 11.4457 7.5 11.6667 7.5H16.6667C16.8877 7.5 17.0996 7.5878 17.2559 7.74408C17.4122 7.90036 17.5 8.11232 17.5 8.33333C17.5 8.55435 17.4122 8.76631 17.2559 8.92259C17.0996 9.07887 16.8877 9.16667 16.6667 9.16667ZM4.16667 9.16667H6.66667V14.1667H4.16667V9.16667Z" fill="black"/>
</svg>
