<svg width="20" height="20" viewBox="0 0 20 20" fill="none" xmlns="http://www.w3.org/2000/svg">
<path d="M9.48337 0.0267429C8.96282 0.120552 8.36791 0.378523 8 0.667765C7.75734 0.859289 1.47945 6.53466 1.04501 6.96071C0.544031 7.44538 0.277887 7.88315 0.0900196 8.5359L0 8.84077V13.0035C0 16.9395 0.00391389 17.1819 0.074364 17.4398C0.367906 18.546 1.19374 19.4567 2.22309 19.8085C2.39922 19.8671 2.65753 19.9375 2.79843 19.957C2.96673 19.9844 5.37769 20 10.0391 20C16.7123 20 17.0411 19.9961 17.3816 19.9257C18.6145 19.6717 19.5773 18.7101 19.91 17.3968L20 17.049V12.9253V8.80169L19.8904 8.45772C19.6908 7.8167 19.4521 7.44147 18.9393 6.94116C18.7476 6.75746 17.456 5.58095 16.0665 4.32627C14.6771 3.06768 13.2329 1.75828 12.8571 1.41823C12.4814 1.07426 12.0744 0.722485 11.953 0.632586C11.6634 0.421518 11.225 0.206543 10.8611 0.104918C10.5323 0.0111084 9.78865 -0.0318871 9.48337 0.0267429ZM10.5245 2.16087C10.6067 2.19996 12.2192 3.63444 14.1057 5.34252C16.7984 7.78544 17.5577 8.4929 17.6556 8.65707C17.9217 9.10265 17.91 8.8525 17.8982 13.1989L17.8865 17.1271L17.7769 17.3343C17.6321 17.6079 17.3973 17.8346 17.1272 17.9636L16.908 18.0652H9.96086H3.0137L2.75147 17.9362C2.4501 17.7877 2.24266 17.5766 2.09785 17.2678L1.99609 17.049L1.98434 13.1833C1.98043 10.7326 1.98826 9.23946 2.01566 9.10656C2.03522 8.9893 2.08219 8.83296 2.11742 8.75478C2.16047 8.66488 2.61057 8.23102 3.40117 7.51183C8.30528 3.06377 9.13894 2.31722 9.27593 2.24686C9.55773 2.09833 9.73386 2.05925 10.0587 2.07488C10.2622 2.0827 10.4227 2.11397 10.5245 2.16087Z" fill="black"/>
</svg>
