<svg width="20" height="11" viewBox="0 0 20 11" fill="none" xmlns="http://www.w3.org/2000/svg">
<path d="M5.45455 7.33333C4.45455 7.33333 3.63636 6.50833 3.63636 5.5C3.63636 4.49167 4.45455 3.66667 5.45455 3.66667C6.45455 3.66667 7.27273 4.49167 7.27273 5.5C7.27273 6.50833 6.45455 7.33333 5.45455 7.33333ZM10.5455 3.66667C9.81818 1.55833 7.81818 0 5.45455 0C2.45455 0 0 2.475 0 5.5C0 8.525 2.45455 11 5.45455 11C7.81818 11 9.81818 9.44167 10.5455 7.33333H13.6364V11H17.2727V7.33333H20V3.66667H10.5455Z" fill="black"/>
</svg>
